<?xml version="1.0" standalone="no"?>
<!DOCTYPE svg PUBLIC "-//W3C//DTD SVG 20010904//EN"
 "http://www.w3.org/TR/2001/REC-SVG-20010904/DTD/svg10.dtd">
<svg version="1.0" xmlns="http://www.w3.org/2000/svg"
 width="219.000000pt" height="184.000000pt" viewBox="0 0 219.000000 184.000000"
 preserveAspectRatio="xMidYMid meet">

<g transform="translate(0.000000,184.000000) scale(0.100000,-0.100000)"
fill="#000000" stroke="none">
<path d="M448 1585 c-66 -18 -102 -47 -132 -107 -24 -48 -26 -61 -26 -193 0
-157 -5 -171 -61 -189 -34 -11 -34 -11 -37 -79 -3 -72 7 -97 37 -97 10 0 26
-6 37 -14 17 -13 20 -31 24 -178 5 -159 6 -166 33 -206 15 -23 46 -54 69 -69
l41 -28 230 -3 c226 -3 230 -3 253 19 33 31 33 97 1 127 -22 21 -33 22 -171
22 -217 0 -226 8 -226 206 0 122 -9 159 -43 186 -16 13 -19 21 -12 31 51 72
50 66 55 215 5 142 5 144 33 168 15 13 39 24 53 24 24 0 24 1 24 90 l0 90 -67
-1 c-38 0 -89 -7 -115 -14z"/>
<path d="M1520 1510 c0 -89 0 -90 24 -90 14 0 38 -11 53 -24 28 -24 28 -26 33
-168 5 -149 4 -145 55 -214 7 -10 3 -19 -13 -35 -36 -32 -42 -61 -42 -185 0
-130 -14 -178 -55 -194 -15 -6 -91 -10 -171 -10 -141 0 -146 -1 -169 -25 -34
-33 -34 -87 0 -120 24 -25 25 -25 232 -25 114 0 225 5 246 11 49 13 100 59
126 113 18 37 21 61 21 189 0 134 2 149 20 167 11 11 28 20 39 20 32 0 42 24
39 97 -3 68 -3 68 -37 79 -56 18 -61 32 -61 188 0 128 -2 146 -24 193 -40 84
-118 122 -253 123 l-63 0 0 -90z"/>
<path d="M815 1060 c-11 -18 -13 -93 -3 -113 8 -15 20 -17 71 -15 l62 3 0 65
0 65 -62 3 c-38 2 -64 -1 -68 -8z"/>
<path d="M1089 1031 c-22 -18 -24 -27 -27 -139 -3 -115 -3 -120 21 -148 25
-28 28 -29 139 -32 112 -4 115 -3 146 23 l32 27 0 119 c0 114 -1 121 -25 144
-23 24 -30 25 -143 25 -103 0 -123 -3 -143 -19z"/>
<path d="M1036 598 c-13 -18 -16 -55 -16 -195 l0 -173 -135 0 c-124 0 -137 -2
-156 -21 -15 -15 -19 -28 -14 -47 12 -52 15 -52 362 -52 310 0 324 1 343 20
24 24 25 48 4 78 -14 21 -22 22 -155 22 l-139 0 0 178 c0 161 -2 181 -18 195
-26 23 -58 21 -76 -5z"/>
</g>
</svg>
